<svg width="23" height="23" viewBox="0 0 23 23" fill="none" xmlns="http://www.w3.org/2000/svg">
<path d="M0.588481 2.22813C0.323442 2.36289 0.116801 2.60996 0.0449261 2.875C0.0134808 2.98731 0.00449644 5.96563 0.00898863 11.6213L0.0224652 20.2014L0.157231 20.417C0.256059 20.5787 0.359379 20.673 0.534575 20.7629L0.772661 20.8887H9.51895C15.0488 20.8887 18.3191 20.8707 18.4135 20.8438C18.6201 20.7854 18.8357 20.6326 18.9436 20.4664C19.0783 20.2643 23 9.47402 23 9.30781C23 9.11016 22.8787 8.76426 22.7439 8.58906C22.5283 8.30156 22.3531 8.25215 21.4861 8.22969L20.709 8.21172V6.98535C20.709 5.65566 20.6865 5.47598 20.4619 5.17949C20.3945 5.09414 20.2328 4.97285 20.107 4.91445L19.8779 4.80664H15.0264H10.1748L9.21348 3.45898L8.25215 2.11133H4.53711H0.826567L0.588481 2.22813ZM8.81368 4.22266L9.77051 5.57031H14.7613C18.993 5.57031 19.7611 5.5793 19.8375 5.6332C19.9184 5.69609 19.9229 5.77246 19.9363 6.9584L19.9498 8.2207L12.3221 8.22969C5.08516 8.24316 4.68536 8.24766 4.51465 8.32402C4.27657 8.43184 4.09239 8.60703 3.99356 8.82715C3.95313 8.92598 3.21641 10.916 2.3584 13.252C1.50039 15.5879 0.795121 17.5061 0.781645 17.515C0.772661 17.524 0.763676 14.2762 0.763676 10.2961C0.763676 3.11309 0.763676 3.05469 0.85352 2.96484C0.943364 2.875 1.00176 2.875 4.39786 2.875H7.85235L8.81368 4.22266ZM22.1869 9.16855C22.2318 9.29883 22.0791 9.73906 20.3002 14.6176C19.2355 17.533 18.3371 19.9678 18.3012 20.0217L18.2383 20.125H9.57286C1.01973 20.125 0.911918 20.125 0.831059 20.0352C0.790629 19.9902 0.763676 19.9139 0.772661 19.8689C0.840043 19.6264 4.68536 9.13262 4.72579 9.0832C4.76172 9.04277 6.56309 9.0293 13.4541 9.0293H22.1375L22.1869 9.16855Z" fill="#979797"/>
</svg>
