<svg width="23" height="23" viewBox="0 0 23 23" fill="none" xmlns="http://www.w3.org/2000/svg">
<path d="M0 5.6785V17.3216C0 18.9259 1.30879 20.2347 2.91311 20.2347H12.3233C13.9276 20.2347 15.2364 18.9259 15.2364 17.3216V15.4358C15.2364 15.1168 14.9784 14.8588 14.6594 14.8588C14.3404 14.8588 14.0824 15.1168 14.0824 15.4358V17.3216C14.0824 18.2926 13.2896 19.0854 12.3186 19.0854H2.91311C1.94208 19.0854 1.1493 18.2926 1.1493 17.3216V5.6785C1.1493 4.70746 1.94208 3.91468 2.91311 3.91468H12.3233C13.2943 3.91468 14.0871 4.70746 14.0871 5.6785V7.56428C14.0871 7.88327 14.3451 8.14127 14.6641 8.14127C14.9831 8.14127 15.2411 7.88327 15.2411 7.56428V5.6785C15.2411 4.07417 13.9323 2.76538 12.328 2.76538H2.91311C1.30879 2.76538 0 4.06948 0 5.6785Z" fill="#979797"/>
<path d="M18.0791 15.8392C18.1917 15.9518 18.3371 16.0081 18.4873 16.0081C18.6374 16.0081 18.7828 15.9518 18.8954 15.8392L22.8311 11.9035C23.0563 11.6783 23.0563 11.3171 22.8311 11.0919L18.8954 7.15618C18.6702 6.93101 18.309 6.93101 18.0838 7.15618C17.8587 7.38135 17.8587 7.74256 18.0838 7.96773L21.0392 10.9231H10.2545C9.93556 10.9231 9.67755 11.1811 9.67755 11.5001C9.67755 11.819 9.93556 12.077 10.2545 12.077H21.0345L18.0791 15.0324C17.854 15.2529 17.854 15.6188 18.0791 15.8392Z" fill="#979797"/>
</svg>
