<svg width="46" height="46" viewBox="0 0 46 46" fill="none" xmlns="http://www.w3.org/2000/svg">
<path d="M2.83008 0.431286C1.74297 0.808628 0.826562 1.63519 0.332422 2.66839C0.0539062 3.25238 0.0449219 3.32425 0.0449219 4.41136C0.0449219 5.52542 0.0449219 5.54339 0.377344 6.20824C0.799609 7.06175 1.54531 7.79847 2.39883 8.20277L3.00977 8.49027L7.11562 8.51722L11.2215 8.54417L10.934 9.14613C10.6555 9.72113 10.6465 9.793 10.6465 10.8711C10.6465 11.9492 10.6555 12.0211 10.934 12.5961L11.2125 13.1891L9.53242 13.225L7.85234 13.252L7.17852 13.5844C6.325 14.0067 5.58828 14.7524 5.18398 15.6059C4.90547 16.1899 4.89648 16.2618 4.89648 17.3399C4.89648 18.418 4.90547 18.4899 5.18398 19.0649C5.33672 19.3973 5.66016 19.8735 5.89375 20.125L6.31602 20.5743L5.89375 21.0235C5.66016 21.275 5.33672 21.7512 5.18398 22.0836C4.90547 22.6586 4.89648 22.7305 4.89648 23.8086C4.89648 24.8868 4.90547 24.9586 5.18398 25.5336C5.33672 25.866 5.66016 26.3422 5.89375 26.5938L6.31602 27.043L5.89375 27.4922C5.66016 27.7438 5.33672 28.22 5.18398 28.5524C4.90547 29.1274 4.89648 29.1993 4.89648 30.2774C4.89648 31.3555 4.90547 31.4274 5.18398 32.0024C5.33672 32.3348 5.66016 32.811 5.89375 33.0625L6.31602 33.5118L5.89375 33.961C5.66016 34.2125 5.33672 34.6887 5.18398 35.0211C4.90547 35.5961 4.89648 35.668 4.89648 36.7551C4.89648 37.8692 4.89648 37.8871 5.22891 38.552C5.65117 39.4055 6.39687 40.1422 7.25039 40.5465L7.86133 40.834L13.6383 40.861L19.4152 40.8879L20.3766 41.7414C22.5059 43.6461 24.8777 44.859 27.6988 45.4789C28.5074 45.6586 28.8578 45.6856 30.7715 45.6766C32.8109 45.6766 32.9816 45.6676 34.0059 45.425C40.0254 44.0145 44.4367 39.5403 45.7484 33.5118C45.9281 32.6762 45.9551 32.3258 45.9461 30.4571C45.9461 28.6063 45.9191 28.2289 45.7484 27.4024C44.8949 23.4493 42.6578 20.0801 39.3695 17.8071C38.4891 17.1961 36.6562 16.2797 35.641 15.9383C34.9133 15.7047 34.8234 15.6418 34.6707 15.3453L34.5 15.0219L36.1891 14.986L37.8781 14.959L38.552 14.6266C39.4055 14.2043 40.1422 13.4586 40.5465 12.6051C40.825 12.0211 40.834 11.9492 40.834 10.8711C40.834 9.793 40.825 9.72113 40.5465 9.13714C40.1422 8.28363 39.4055 7.53793 38.552 7.11566L37.8781 6.78324L33.7723 6.75628L29.6574 6.72933L29.9449 6.12738C30.2234 5.55238 30.2324 5.4805 30.2324 4.40238C30.2324 3.32425 30.2234 3.25238 29.9449 2.66839C29.5406 1.81488 28.8039 1.06918 27.9504 0.646908L27.2766 0.314487L15.2824 0.29652C4.07891 0.278549 3.25234 0.287533 2.83008 0.431286ZM26.9621 2.2641C27.4383 2.47074 27.9953 3.0098 28.202 3.45004C28.4535 3.97113 28.4535 4.83363 28.202 5.35472C27.9953 5.79496 27.4383 6.33402 26.9621 6.54066C26.6656 6.68441 25.6414 6.69339 15.1387 6.69339H3.63867L3.21641 6.48675C2.74023 6.25316 2.20117 5.69613 2.0125 5.24691C1.85078 4.86058 1.85078 3.94418 2.0125 3.55785C2.3 2.87503 3.03672 2.28207 3.75547 2.15628C3.98906 2.12035 9.23594 2.0934 15.4082 2.10238C25.6414 2.11136 26.6656 2.12035 26.9621 2.2641ZM37.5637 8.73285C38.0398 8.93949 38.5969 9.47855 38.8035 9.91878C39.0551 10.4399 39.0551 11.3024 38.8035 11.8235C38.5969 12.2637 38.0398 12.8028 37.5637 13.0094C37.2672 13.1532 36.243 13.1621 25.7402 13.1621H14.2402L13.818 12.9555C13.3418 12.7219 12.8027 12.1649 12.6141 11.7157C12.4523 11.3293 12.4523 10.4129 12.6141 10.0266C12.9016 9.34378 13.6383 8.75082 14.357 8.62503C14.5906 8.5891 19.8375 8.56215 26.0098 8.57113C36.243 8.58011 37.2672 8.5891 37.5637 8.73285ZM31.2656 15.0848C31.5531 15.1297 31.2297 15.1657 30.0977 15.2016C29.0105 15.2375 28.2469 15.3184 27.627 15.4532C25.0305 16.0012 22.5867 17.2321 20.5473 19.002L19.7656 19.6848L14.1234 19.6578L8.49023 19.6309L8.06797 19.4242C7.5918 19.1907 7.05273 18.6336 6.86406 18.1844C6.70234 17.7981 6.70234 16.8817 6.86406 16.4953C7.15156 15.8125 7.88828 15.2196 8.60703 15.0938C9.13711 15.0039 30.7176 14.995 31.2656 15.0848ZM32.793 17.2051C38.2555 18.0227 42.7207 22.2992 43.9066 27.8516C44.1402 28.9297 44.1402 31.9754 43.9066 33.0446C43.0172 37.1684 40.3668 40.6274 36.7012 42.4512C35.0121 43.2868 33.4668 43.718 31.6969 43.8258C29.1633 43.9875 26.9801 43.5563 24.752 42.4512C21.0863 40.6274 18.418 37.1504 17.5465 33.0625C17.3129 31.9754 17.3129 28.9387 17.5465 27.8516C18.418 23.7637 21.0863 20.2957 24.752 18.4629C27.3125 17.1871 29.9359 16.7828 32.793 17.2051ZM18.2383 21.5176C18.2383 21.5356 18.0586 21.8321 17.843 22.1645C17.3129 23 16.7559 24.1231 16.3426 25.2012L16.0012 26.0996H12.2457C8.5082 26.0996 8.49023 26.0996 8.06797 25.893C7.5918 25.6594 7.05273 25.1024 6.86406 24.6532C6.70234 24.2668 6.70234 23.3504 6.86406 22.9641C7.15156 22.2813 7.88828 21.6883 8.60703 21.5625C9.04727 21.4907 18.2383 21.4457 18.2383 21.5176ZM15.5609 28.2289C15.525 28.3907 15.498 29.4508 15.498 30.5739V32.6223L11.9941 32.5953C8.54414 32.5684 8.48125 32.5684 8.06797 32.3618C7.5918 32.1282 7.05273 31.5711 6.86406 31.1219C6.70234 30.7356 6.70234 29.8192 6.86406 29.4328C7.15156 28.75 7.88828 28.1571 8.60703 28.0313C8.84062 27.9953 10.5117 27.9594 12.3266 27.9504L15.6328 27.9414L15.5609 28.2289ZM16.2437 35.4434C16.6121 36.4766 17.241 37.8063 17.7621 38.6149L18.0586 39.091L13.2789 39.0641L8.49023 39.0371L8.06797 38.8305C7.5918 38.5969 7.05273 38.0399 6.86406 37.5907C6.70234 37.2043 6.70234 36.2879 6.86406 35.9016C7.15156 35.2188 7.88828 34.6258 8.60703 34.5C8.84062 34.4641 10.5746 34.4371 12.4703 34.4461L15.9023 34.4551L16.2437 35.4434Z" fill="#6F3BE3"/>
<path d="M31.4094 19.0109C31.2207 19.1996 31.1758 19.3344 31.1758 19.6758C31.1758 20.2777 31.4812 20.5742 32.0922 20.5742C32.4605 20.5742 32.5773 20.5293 32.802 20.3137C33.0086 20.107 33.0625 19.9723 33.0625 19.6758C33.0625 19.3793 33.0086 19.2445 32.802 19.0379C32.5773 18.8223 32.4605 18.7773 32.0922 18.7773C31.7328 18.7773 31.607 18.8223 31.4094 19.0109Z" fill="#6F3BE3"/>
<path d="M34.9492 19.9274C34.7246 20.0352 34.5988 20.179 34.527 20.4036C34.3203 21.0504 34.5719 21.3829 35.8207 22.0836C37.9949 23.3055 39.8098 25.884 40.3578 28.5614C40.5016 29.2711 40.5285 29.6575 40.4926 30.7715C40.4477 32.2809 40.2949 33.0086 39.7469 34.3024C39.2258 35.5333 39.2258 35.9915 39.7379 36.2969C40.5914 36.818 41.1305 36.279 41.8223 34.2036C42.3074 32.7481 42.4332 31.8317 42.3793 30.0528C42.3344 28.3458 42.1188 27.2946 41.5528 25.9559C40.4926 23.4313 38.561 21.32 36.243 20.1161C35.4793 19.7208 35.3895 19.7028 34.9492 19.9274Z" fill="#6F3BE3"/>
<path d="M30.1067 23.2337C29.9001 23.4044 29.8192 23.5661 29.7743 23.8895C29.7204 24.3118 29.7204 24.3208 29.1364 24.5723C28.3907 24.8958 27.5821 25.6415 27.2676 26.2794C26.6118 27.618 26.9442 29.3251 28.0493 30.3223C28.7501 30.9512 29.7922 31.3555 30.7176 31.3555C31.1579 31.3555 31.5981 31.5083 31.9665 31.7868C32.4157 32.1102 32.6133 32.4965 32.6133 33.0266C32.6133 34.3833 30.7985 35.138 29.5497 34.2934C29.1274 34.0059 28.8669 33.5837 28.795 33.0446C28.7051 32.4247 28.3727 32.0743 27.8696 32.0743C27.1508 32.0743 26.8184 32.6133 26.9712 33.5567C27.1688 34.8415 28.1751 35.9465 29.5766 36.4137C29.6665 36.4407 29.7473 36.6114 29.7833 36.845C29.8731 37.384 30.2415 37.7344 30.7176 37.7344C31.2387 37.7344 31.5532 37.438 31.6161 36.8809C31.67 36.4676 31.679 36.4497 32.0473 36.3419C32.9278 36.0813 33.7993 35.3087 34.2215 34.4192C34.4282 33.979 34.4551 33.8083 34.4551 32.9727C34.4551 32.1102 34.4282 31.9844 34.2036 31.5532C33.5297 30.2774 32.4965 29.6215 30.8973 29.4688C29.5407 29.343 28.8219 28.768 28.8219 27.8067C28.8219 26.8813 29.6755 26.1446 30.7266 26.1446C31.2657 26.1446 31.7508 26.3333 32.1012 26.6657C32.4426 26.9891 32.5774 27.2676 32.6583 27.7977C32.784 28.7141 33.6645 29.0465 34.2934 28.4266C34.509 28.211 34.518 28.1571 34.4821 27.5102C34.4282 26.6297 34.1137 25.9559 33.4579 25.336C33.0266 24.9227 32.0204 24.3477 31.7419 24.3477C31.661 24.3477 31.6251 24.204 31.6251 23.9344C31.6251 23.0989 30.7446 22.6946 30.1067 23.2337Z" fill="#6F3BE3"/>
<path d="M20.727 24.5813C20.4215 24.743 20.0352 25.4977 19.6309 26.7105C19.2086 27.9863 19.0469 29.0016 19.0469 30.457C19.0469 31.9215 19.2086 32.9277 19.6398 34.2305C20.2508 36.0453 21.266 37.6266 22.6766 38.9742C23.5121 39.7648 24.6441 40.5555 25.4617 40.9328C25.9289 41.1484 26.0187 41.1574 26.3332 41.0676C26.7645 40.9418 26.9801 40.6273 26.9801 40.1512C26.9801 39.7109 26.7734 39.4684 26.0547 39.091C23.5391 37.7434 21.6164 35.1109 21.0773 32.2539C20.8977 31.3195 20.8977 29.6125 21.0684 28.6871C21.2211 27.8785 21.5176 26.9711 21.868 26.2344C22.2453 25.4348 22.1645 24.8418 21.6523 24.5723C21.3289 24.4016 21.0504 24.4016 20.727 24.5813Z" fill="#6F3BE3"/>
<path d="M28.6512 40.6005C28.4445 40.8071 28.3906 40.9419 28.3906 41.2383C28.3906 41.5348 28.4445 41.6696 28.6512 41.8762C28.8758 42.0919 28.9926 42.1368 29.3609 42.1368C29.9719 42.1368 30.2773 41.8403 30.2773 41.2383C30.2773 40.6364 29.9719 40.3399 29.3609 40.3399C28.9926 40.3399 28.8758 40.3848 28.6512 40.6005Z" fill="#6F3BE3"/>
</svg>
