<svg width="23" height="23" viewBox="0 0 23 23" fill="none" xmlns="http://www.w3.org/2000/svg">
<path d="M2.05635 0.0865383C1.61088 0.203352 1.22841 0.414515 0.881935 0.737999C0.517462 1.07945 0.278979 1.43888 0.121491 1.90164L0 2.26556V11.4759V20.6862L0.103492 21.0232C0.400471 21.9846 1.21041 22.7349 2.15984 22.9326C2.42532 22.9865 3.17227 23 6.817 23C11.0422 23 11.1637 22.9955 11.3032 22.9101C11.5911 22.7349 11.6991 22.4114 11.5641 22.1284C11.4022 21.7869 11.7621 21.8139 6.8395 21.7869L2.42982 21.7645L2.16884 21.6611C1.85836 21.5353 1.52539 21.2208 1.3724 20.9108L1.25991 20.6862L1.24641 11.5792L1.23741 2.47223L1.3319 2.21165C1.46689 1.85222 1.83586 1.48381 2.19584 1.34903L2.45682 1.25467L9.12533 1.26366L15.7938 1.27714L16.0413 1.39395C16.3383 1.53772 16.5948 1.78034 16.7523 2.08585L16.8738 2.31049L16.8963 5.93621C16.9188 9.51251 16.9188 9.56193 17.0132 9.68773C17.1482 9.87193 17.3777 9.97976 17.5847 9.95281C17.8232 9.92585 17.9717 9.81353 18.0707 9.58439C18.1562 9.3912 18.1607 9.27439 18.1472 5.82838L18.1337 2.26556L18.0122 1.90614C17.7017 1.00308 16.9683 0.315674 16.0593 0.0865383C15.7218 0.00117493 15.5419 -0.00331879 9.04883 0.00117493C2.63681 0.00117493 2.37133 0.00566673 2.05635 0.0865383Z" fill="#979797"/>
<path d="M3.46035 5.47343C3.07788 5.70706 3.10038 6.26867 3.50085 6.51128C3.64034 6.59664 3.77083 6.60114 8.99945 6.60114C14.2281 6.60114 14.3586 6.59664 14.498 6.51128C14.7905 6.33606 14.885 6.03055 14.741 5.73402C14.5565 5.35662 15.0605 5.38807 8.99045 5.38807C3.79783 5.38807 3.59534 5.39256 3.46035 5.47343Z" fill="#979797"/>
<path d="M3.64464 10.2134C3.57265 10.2448 3.46016 10.3302 3.39716 10.3976C3.30267 10.4964 3.28467 10.5638 3.28467 10.7795C3.28467 10.9951 3.30267 11.0625 3.39716 11.1614C3.62664 11.413 3.55915 11.4085 6.72691 11.4085C9.93068 11.4085 9.84069 11.4175 10.0702 11.1434C10.3221 10.8424 10.1872 10.3706 9.80019 10.2134C9.5887 10.1235 3.84713 10.1235 3.64464 10.2134Z" fill="#979797"/>
<path d="M16.8557 11.5747C16.7882 11.6466 16.4012 12.4059 15.9782 13.3L15.2223 14.8949L13.6384 15.133C12.77 15.2633 11.9825 15.3891 11.888 15.4071C11.5505 15.479 11.3616 15.798 11.4516 16.135C11.4965 16.2922 11.8565 16.6831 13.6429 18.5117L13.9759 18.8486L13.7014 20.5469C13.5529 21.4859 13.4314 22.3126 13.4314 22.389C13.4314 22.5822 13.5169 22.7304 13.7014 22.8562C13.8094 22.9281 13.8994 22.9551 13.9939 22.9416C14.0704 22.9281 14.8128 22.5417 15.6542 22.079C17.0221 21.3242 17.1886 21.2433 17.2876 21.2882C17.3461 21.3152 17.9671 21.6522 18.6645 22.043C20.2754 22.9326 20.3429 22.9686 20.5409 22.9101C20.6219 22.8877 20.7389 22.8248 20.7929 22.7709C21.0133 22.5642 21.0133 22.5193 20.7209 20.6907C20.5724 19.7562 20.4509 18.9475 20.4509 18.9025C20.4509 18.8486 20.9234 18.3319 21.6883 17.5502C23.0202 16.1934 23.0607 16.135 22.9707 15.8025C22.9437 15.7126 22.8672 15.5868 22.7952 15.5284C22.6557 15.4116 22.6467 15.4116 20.3294 15.0657L19.1955 14.8949L18.4215 13.264C17.9176 12.1992 17.6071 11.5972 17.5351 11.5433C17.4586 11.4804 17.3551 11.4534 17.2021 11.4534C17.0176 11.4534 16.9591 11.4759 16.8557 11.5747ZM17.8141 14.5984C18.1066 15.2274 18.3855 15.789 18.4395 15.8474C18.5655 15.9822 18.687 16.0092 19.9334 16.1934C20.5274 16.2832 21.0628 16.3641 21.1213 16.3776C21.2203 16.4 21.1438 16.4899 20.3069 17.33C19.7984 17.8422 19.3575 18.305 19.3305 18.3589C19.254 18.5117 19.2675 18.6779 19.4835 19.9898C19.596 20.6682 19.6859 21.2388 19.6859 21.2613C19.6859 21.2837 19.5285 21.2163 19.3395 21.1085C17.2966 19.9898 17.3776 20.0302 17.2021 20.0482C17.1031 20.0617 16.5722 20.3178 15.8972 20.6817C15.2718 21.0142 14.7543 21.2748 14.7453 21.2523C14.7408 21.2343 14.8263 20.6682 14.9388 19.9988C15.0513 19.3294 15.1413 18.7004 15.1413 18.597C15.1413 18.3814 15.1053 18.3409 13.8859 17.1054C13.2514 16.4629 13.2019 16.4 13.3009 16.3776C13.3594 16.3641 13.9174 16.2787 14.5338 16.1934C15.7892 16.0136 15.8972 15.9867 16.0277 15.8429C16.0772 15.789 16.3472 15.2499 16.6262 14.6433C17.2381 13.3179 17.2111 13.3674 17.2516 13.4123C17.2696 13.4348 17.5261 13.9694 17.8141 14.5984Z" fill="#979797"/>
</svg>
