<svg width="23" height="23" viewBox="0 0 23 23" fill="none" xmlns="http://www.w3.org/2000/svg">
<path d="M6.98538 0.0628967C6.60804 0.157232 6.32503 0.318951 6.03753 0.606451C5.74554 0.898443 5.56585 1.21739 5.48499 1.60821C5.44905 1.77442 5.43558 3.21641 5.43558 6.36993V10.8981L5.00433 10.9789C3.76897 11.208 2.72229 11.7695 1.81936 12.6859C1.08714 13.4227 0.678348 14.0875 0.363895 15.0264C-0.233566 16.8232 0.0314732 18.7414 1.10061 20.3496C1.2219 20.5338 1.54534 20.9111 1.81936 21.1852C2.69085 22.0656 3.60276 22.5732 4.87405 22.8787L5.27835 22.9731L13.1621 22.991C18.9391 23 21.1178 22.991 21.3155 22.9551C21.6793 22.8832 22.1465 22.6316 22.3891 22.3711C22.6272 22.1195 22.8338 21.7242 22.9057 21.3918C22.9416 21.2211 22.9551 18.8941 22.9551 13.0902C22.9551 5.79493 22.9461 5.01329 22.8832 4.88301C22.7844 4.68536 18.3012 0.193169 18.0946 0.0853577C17.9328 0.00449753 17.7801 5.72205e-06 12.5692 0.00449753C8.44085 0.00898933 7.16058 0.0224667 6.98538 0.0628967ZM17.1153 3.32422C17.1153 5.21993 17.1198 5.30977 17.2051 5.48047C17.2635 5.59727 17.3578 5.69161 17.4746 5.75001C17.6453 5.83536 17.7352 5.83985 19.6309 5.83985H21.6075V13.4766C21.6075 21.0459 21.6075 21.1178 21.5176 21.293C21.4592 21.4098 21.3649 21.5041 21.2481 21.5625C21.0729 21.6524 20.9965 21.6524 15.5116 21.6524H9.95022L10.4039 21.1897C11.2844 20.3002 11.8414 19.2445 12.066 18.0406L12.1469 17.6094H15.7092C19.1951 17.6094 19.2805 17.6094 19.4512 17.5195C19.6533 17.4162 19.8106 17.1602 19.8106 16.9356C19.8106 16.7109 19.6533 16.4549 19.4512 16.3516C19.2805 16.2617 19.1951 16.2617 15.7092 16.2617H12.1379L12.111 16.0461C12.0166 15.4082 11.7157 14.5367 11.3832 13.9617C11.2754 13.7731 11.1856 13.6023 11.1856 13.5889C11.1856 13.5754 13.0049 13.5664 15.2285 13.5664C19.1951 13.5664 19.2805 13.5664 19.4512 13.4766C19.6533 13.3732 19.8106 13.1172 19.8106 12.8926C19.8106 12.668 19.6533 12.4119 19.4512 12.3086C19.276 12.2188 19.1951 12.2188 14.5996 12.2188H9.92327L9.68968 12.0481C8.93499 11.4865 7.90179 11.0598 6.99886 10.934L6.78323 10.907V6.3834C6.78772 1.30274 6.76077 1.67559 7.12464 1.45547L7.29983 1.34766H12.2098H17.1153V3.32422ZM19.5635 3.41407L20.6416 4.49219H19.55H18.4629V3.41407C18.4629 2.8211 18.4674 2.33594 18.4764 2.33594C18.4809 2.33594 18.9705 2.8211 19.5635 3.41407ZM7.18753 12.3445C8.07698 12.5781 8.82718 13.0004 9.43811 13.6068C10.0446 14.2133 10.4533 14.941 10.7049 15.8574C10.7768 16.1359 10.7948 16.3246 10.7948 16.9356C10.7948 17.7441 10.7498 17.9912 10.4713 18.71C10.0491 19.8016 8.97542 20.8752 7.88382 21.2975C7.16507 21.576 6.918 21.6209 6.1094 21.6209C5.30081 21.6209 5.05374 21.576 4.33499 21.2975C3.24339 20.8752 2.16975 19.8016 1.74749 18.71C1.47347 18.0002 1.42405 17.7397 1.41956 16.958C1.41507 16.1539 1.49143 15.7586 1.77444 15.0893C2.38987 13.6293 3.83186 12.5107 5.41311 12.2637C5.83538 12.2008 6.79671 12.2457 7.18753 12.3445Z" fill="#979797"/>
<path d="M8.93047 8.27012C8.7373 8.36895 8.58008 8.63398 8.58008 8.84961C8.58008 9.07422 8.7373 9.33027 8.93945 9.43359C9.11465 9.52344 9.19102 9.52344 14.1953 9.52344C19.1996 9.52344 19.276 9.52344 19.4512 9.43359C19.6533 9.33027 19.8105 9.07422 19.8105 8.84961C19.8105 8.625 19.6533 8.36895 19.4512 8.26562C19.276 8.17578 19.1996 8.17578 14.1863 8.17578C9.20898 8.18027 9.09219 8.18027 8.93047 8.27012Z" fill="#979797"/>
<path d="M8.01863 15.1206C7.94676 15.1611 7.27293 15.8035 6.52723 16.5447L5.1661 17.9013L4.70789 17.4431C4.45184 17.196 4.18231 16.958 4.10145 16.9175C3.5534 16.6435 2.94246 17.2544 3.21649 17.8025C3.31531 18.0001 4.65848 19.3478 4.86063 19.4556C5.06278 19.5589 5.25594 19.5634 5.4491 19.4691C5.64676 19.3703 8.79129 16.2347 8.8991 16.0281C9.00692 15.8124 9.00692 15.6283 8.89461 15.4081C8.73738 15.0982 8.3241 14.9634 8.01863 15.1206Z" fill="#979797"/>
</svg>
