<svg width="23" height="23" viewBox="0 0 23 23" fill="none" xmlns="http://www.w3.org/2000/svg">
<path d="M3.21938 0.0734921C2.79715 0.24968 2.47824 0.627966 2.35696 1.10471C2.31653 1.26535 2.28958 1.58145 2.28958 1.92865V2.4883H1.88533C1.17563 2.4883 0.811798 2.62821 0.452459 3.04796C0.138036 3.41588 0.0302342 3.71643 0.00777545 4.27609C-0.0101915 4.69583 -0.00120804 4.75283 0.0796434 4.83574C0.196429 4.96011 0.470425 4.96529 0.578227 4.85129C0.632128 4.79429 0.672554 4.65437 0.690521 4.42118C0.762389 3.62316 1.08579 3.31742 1.86287 3.31742H2.28958V3.91335C2.28958 4.39009 2.30755 4.5611 2.38391 4.79947C2.80613 6.09497 4.38274 6.15197 4.88132 4.88756C4.97565 4.64919 4.99811 4.49891 5.02057 3.95999L5.04303 3.31742H5.86501H6.6915V3.77862C6.6915 4.60255 6.7993 5.00675 7.13169 5.37467C7.7785 6.10015 8.88347 5.87732 9.28323 4.9342C9.39553 4.6751 9.409 4.57664 9.42248 3.98071L9.44045 3.31742H10.2894H11.1383V3.93926C11.1383 4.68546 11.2192 4.99638 11.5022 5.32803C11.7582 5.62859 12.0412 5.77368 12.405 5.79441C12.8452 5.8255 13.1192 5.70632 13.4336 5.34358C13.7705 4.95493 13.8334 4.72692 13.8334 3.92889V3.31742H14.6868H15.5402V3.91335C15.5402 4.39009 15.5582 4.5611 15.6346 4.79947C16.0568 6.09497 17.6334 6.15197 18.132 4.88756C18.2263 4.64919 18.2488 4.49891 18.2712 3.95999L18.2937 3.31742H18.7069C19.0752 3.31742 19.1516 3.33297 19.3627 3.46251C19.5559 3.57652 19.6277 3.65943 19.7265 3.88226L19.8523 4.1569V5.60268V7.04845H10.2624H0.672554V6.47843C0.672554 5.97578 0.663571 5.89805 0.582719 5.80478C0.461442 5.66486 0.209904 5.66486 0.0886269 5.80478C-0.00120804 5.90841 -0.00120804 5.95505 0.00777545 12.9715L0.0212507 20.0293L0.133544 20.2884C0.268297 20.5994 0.596194 20.9932 0.834257 21.1331C1.20707 21.3507 1.2475 21.3507 7.5045 21.3507H13.519L13.8289 21.6202C14.9563 22.61 16.187 23.0608 17.5795 22.9934C18.2173 22.9623 18.6351 22.8794 19.1741 22.667C19.8074 22.4131 20.6878 21.843 20.7956 21.6098C20.8719 21.444 20.845 21.2989 20.7057 21.1383C20.544 20.9517 20.4452 20.9673 20.0544 21.2471C18.4689 22.382 16.6677 22.4908 15.0686 21.5425C14.013 20.9103 13.1192 19.7754 12.7104 18.5473C11.9783 16.3346 12.4499 13.9301 13.9277 12.3082C14.9114 11.2303 16.2005 10.6707 17.5391 10.7432C19.5693 10.8572 21.3076 12.3341 22.0084 14.5468C22.3677 15.6868 22.3767 17.1792 22.0263 18.3037C21.8556 18.8427 21.6041 19.4023 21.3391 19.8221C21.1819 20.0708 21.11 20.2314 21.11 20.3403C21.11 20.646 21.3346 20.8377 21.5771 20.7341C21.8422 20.6149 22.462 19.4179 22.7225 18.5214C23.0998 17.2259 23.0909 15.6609 22.7046 14.3291C22.3812 13.2047 21.658 12.0232 20.8809 11.3391L20.571 11.0645V7.58738C20.571 4.56628 20.562 4.07917 20.4991 3.83562C20.3599 3.29669 20.0814 2.92359 19.6277 2.68003C19.3672 2.53494 19.2819 2.51939 18.8147 2.49866L18.2937 2.47794L18.2667 1.84055C18.2398 1.08398 18.141 0.773062 17.8265 0.425867C17.2965 -0.164879 16.3892 -0.128605 15.8906 0.50878C15.6301 0.840427 15.5402 1.19798 15.5402 1.89237V2.4883H14.6913H13.8424L13.8244 1.7991C13.8109 1.02698 13.739 0.788607 13.4336 0.446596C13.1461 0.125313 12.9171 0.0268536 12.4859 0.0268536C12.0367 0.0268536 11.7986 0.135675 11.5022 0.477688C11.2192 0.809336 11.1383 1.12026 11.1383 1.86646V2.4883H10.2894H9.44045L9.42248 1.82501C9.409 1.22908 9.39553 1.13062 9.28323 0.866337C8.78465 -0.304792 7.31136 -0.273701 6.83523 0.923338C6.74091 1.16689 6.71845 1.30681 6.70048 1.85092L6.67802 2.4883H5.86052H5.04303L5.02057 1.84573C4.98912 1.08916 4.89031 0.767879 4.58037 0.420685C4.24799 0.0475826 3.65507 -0.102695 3.21938 0.0734921ZM3.95153 0.92852C4.03687 0.980341 4.14917 1.10471 4.19858 1.19798C4.28392 1.36381 4.28841 1.46745 4.28841 2.90286C4.28841 4.60773 4.27943 4.65437 3.98297 4.86683C3.66855 5.08966 3.25531 4.94456 3.08911 4.5611C3.01725 4.40046 3.00826 4.20354 3.00826 2.90286C3.00826 1.60218 3.01725 1.40526 3.08911 1.24462C3.25082 0.866337 3.63262 0.726423 3.95153 0.92852ZM8.40285 0.949249C8.69931 1.17726 8.71278 1.25499 8.71278 2.90286C8.71278 4.20354 8.7038 4.40046 8.63193 4.5611C8.38938 5.11557 7.72011 5.11039 7.50001 4.54555C7.41916 4.34864 7.41018 4.19836 7.41018 2.90286C7.41018 1.52445 7.41467 1.46745 7.51349 1.24462C7.68417 0.84561 8.09292 0.710876 8.40285 0.949249ZM12.7913 0.933702C12.8721 0.990705 12.9755 1.10989 13.0249 1.20317C13.1102 1.36381 13.1147 1.46745 13.1147 2.90286C13.1147 4.33827 13.1102 4.44191 13.0249 4.60255C12.7643 5.09484 12.158 5.08966 11.9244 4.58701C11.8615 4.45228 11.8525 4.22945 11.866 2.84586C11.8795 1.34308 11.884 1.2498 11.9693 1.14098C12.2074 0.830063 12.5263 0.74715 12.7913 0.933702ZM17.1842 0.912975C17.2651 0.959612 17.3819 1.08398 17.4358 1.18762C17.5391 1.36899 17.5391 1.40527 17.5391 2.90286C17.5391 4.33827 17.5346 4.44191 17.4492 4.60773C17.2696 4.96011 16.8563 5.0793 16.5688 4.85647C16.2724 4.62846 16.2589 4.55073 16.2589 2.90286C16.2589 1.60218 16.2679 1.40526 16.3398 1.24462C16.497 0.876701 16.8608 0.736788 17.1842 0.912975ZM3.95153 9.71718V11.5568H2.31204H0.672554V9.71718V7.87757H2.31204H3.95153V9.71718ZM7.94919 9.71718V11.5568H6.3097H4.67021V9.71718V7.87757H6.3097H7.94919V9.71718ZM11.9019 9.71718V11.5568H10.2624H8.62295V9.71718V7.87757H10.2624H11.9019V9.71718ZM15.8996 8.98652V10.0903L15.4863 10.2613C14.9339 10.4789 14.3724 10.8261 13.9052 11.2303L13.5279 11.5568H13.0743H12.6206V9.71718V7.87757H14.2601H15.8996V8.98652ZM19.8523 9.21971V10.5618L19.475 10.3857C18.7204 10.0281 17.9029 9.86746 17.0854 9.90891L16.6183 9.93482V8.90361V7.87757H18.2353H19.8523V9.21971ZM3.95153 14.1996V16.0133H2.31204H0.672554V14.1996V12.3859H2.31204H3.95153V14.1996ZM7.94919 14.1996V16.0133H6.3097H4.67021V14.1996V12.3859H6.3097H7.94919V14.1996ZM11.9019 13.4534C11.9019 14.3395 11.8884 14.5882 11.8121 14.9147C11.7672 15.1375 11.7133 15.4692 11.6953 15.6609L11.6639 16.0133H10.1456H8.62295V14.1996V12.3859H10.2624H11.9019V13.4534ZM3.95153 18.682V20.5216H2.72977C2.02457 20.5216 1.43166 20.4957 1.33733 20.4698C1.11724 20.3973 0.9196 20.2003 0.793831 19.9309C0.699505 19.7288 0.695013 19.6459 0.681538 18.2778L0.663571 16.8424H2.30755H3.95153V18.682ZM7.94919 18.682V20.5216H6.3097H4.67021V18.682V16.8424H6.3097H7.94919V18.682ZM11.6684 17.0756C11.6863 17.4124 11.857 18.283 11.9783 18.6768C12.131 19.1691 12.3915 19.7547 12.6386 20.1744L12.8452 20.5216H10.7341H8.62295V18.682V16.8424L10.1412 16.8528L11.6549 16.8683L11.6684 17.0756Z" fill="#6F3BE3"/>
<path d="M16.8203 11.6448C16.1061 11.7588 15.1853 12.1993 14.799 12.619C14.6059 12.8263 14.5879 12.8626 14.6149 13.0181C14.6823 13.4171 14.9652 13.4741 15.3695 13.158C15.9804 12.6761 16.5688 12.4688 17.3369 12.4688C17.7411 12.4636 17.9298 12.4895 18.2038 12.5828C19.1336 12.8885 19.8568 13.5259 20.3284 14.4587C20.6293 15.0442 20.7551 15.5572 20.7821 16.2724C20.8135 17.1429 20.6743 17.801 20.2969 18.5369C20.0813 18.9566 19.4884 19.6355 19.1111 19.8894C17.7681 20.8014 16.1106 20.6045 15.0012 19.3971C14.2331 18.5628 13.8693 17.6197 13.8737 16.4537C13.8737 15.8008 13.9636 15.3448 14.2196 14.7229C14.4532 14.1529 14.4711 13.9456 14.3005 13.7902C14.0579 13.5725 13.8737 13.6762 13.6447 14.1581C13.3123 14.868 13.1551 15.5883 13.1551 16.4278C13.1506 17.858 13.5728 18.9981 14.4667 19.9827C15.1988 20.7807 16.1017 21.2212 17.1348 21.2833C19.0752 21.3973 20.7776 19.993 21.366 17.7907C21.4783 17.3709 21.4873 17.2673 21.4873 16.4537C21.4873 15.6453 21.4738 15.5365 21.3615 15.1064C20.8809 13.2823 19.6052 11.9868 17.9927 11.6863C17.6109 11.6137 17.1258 11.5982 16.8203 11.6448Z" fill="#6F3BE3"/>
<path d="M17.0901 13.7073L16.9778 13.8317V15.4899C16.9778 16.4019 16.9913 17.1844 17.0047 17.231C17.0766 17.4435 17.2248 17.4642 18.6487 17.4642C20.113 17.4642 20.1849 17.4487 20.2882 17.1948C20.3601 17.0341 20.2927 16.7647 20.1669 16.6869C20.1175 16.6558 19.583 16.6351 18.8913 16.6351H17.6965V15.2826C17.6965 13.9146 17.683 13.7902 17.5213 13.6451C17.4045 13.5415 17.2069 13.5674 17.0901 13.7073Z" fill="#6F3BE3"/>
</svg>
