<svg width="46" height="46" viewBox="0 0 46 46" fill="none" xmlns="http://www.w3.org/2000/svg">
<path d="M39.7564 0.0954895C39.5857 0.140423 38.3547 1.30868 36.1443 3.51939C33.5475 6.10753 32.7657 6.94328 32.7028 7.18592C32.6579 7.35667 32.613 8.51594 32.613 9.76508V12.0207L32.3793 12.2993C32.2536 12.4521 32.1098 12.5779 32.0559 12.5779C32.0109 12.5779 31.6695 12.3263 31.2921 12.0297C28.5785 9.81001 25.4156 8.4081 21.8304 7.85093C20.5455 7.65322 17.8139 7.65322 16.484 7.85093C10.2301 8.79452 4.91973 12.6138 2.08032 18.2125C-1.23532 24.7457 -0.552423 32.4113 3.87742 38.3515C4.70408 39.4658 6.53712 41.2991 7.63335 42.1168C9.38551 43.4199 11.1287 44.3365 13.0875 44.9926C18.0026 46.6371 23.1872 46.2597 27.7878 43.9231C31.5347 42.018 34.4819 39.0434 36.3419 35.2691C39.6666 28.5291 38.7321 20.5041 33.9428 14.6807C33.6553 14.3303 33.4217 13.9978 33.4217 13.9528C33.4217 13.8989 33.5475 13.7461 33.7002 13.6203L33.9788 13.3867H36.2431C37.6808 13.3867 38.6332 13.3507 38.8219 13.2878C39.2802 13.1351 45.7947 6.62875 45.9115 6.1974C46.0642 5.66718 46.0193 5.34367 45.7767 5.10103C45.4622 4.7865 45.2555 4.75954 43.117 4.75954H41.239V2.88134C41.239 0.769485 41.2121 0.535835 40.9156 0.221302C40.6909 -0.0213356 40.2866 -0.0662689 39.7564 0.0954895ZM39.424 6.26929C39.6396 6.64672 40.044 6.73659 41.4367 6.73659H42.7216L40.3405 9.11804L37.9593 11.4995H36.2341H34.4999V9.77406V8.03965L36.8631 5.67617L39.2173 3.32168L39.2622 4.68764C39.2892 5.59529 39.3521 6.13449 39.424 6.26929ZM21.2014 9.71116C23.906 10.0437 26.5747 11.0142 28.6953 12.4341C29.7196 13.1261 30.6272 13.845 30.6272 13.9708C30.6362 14.0247 29.8904 14.8066 28.9828 15.7142L27.3295 17.3588L26.4939 16.7567C25.0831 15.7412 23.2142 14.9324 21.471 14.5819C20.4017 14.3662 17.9397 14.3662 16.8614 14.5819C11.8655 15.5794 8.1545 19.192 6.98639 24.1706C6.7348 25.267 6.66292 27.5316 6.85161 28.7088C7.06726 30.0478 7.39972 31.0993 7.98378 32.3035C9.78088 35.988 13.1504 38.4683 17.2478 39.1423C18.389 39.331 20.7342 39.2681 21.8304 39.0165C25.3168 38.2077 28.2011 36.0958 29.9353 33.0853C32.4063 28.7897 32.1278 23.5326 29.2165 19.4706L28.6414 18.6708L30.2857 17.0173C31.1933 16.1096 31.975 15.3637 32.0289 15.3727C32.3075 15.3817 33.9338 17.7632 34.6257 19.174C35.8028 21.5645 36.3869 24.0987 36.3869 26.8396C36.3869 30.9016 35.048 34.6939 32.5231 37.7853C31.7683 38.7109 30.1599 40.2117 29.1895 40.9037C25.4426 43.5817 20.3478 44.669 15.8281 43.7614C11.9374 42.9796 8.44204 40.9396 6.02495 38.0369C3.56293 35.0983 2.26003 31.8811 1.9725 28.0618C1.64902 23.8201 2.9609 19.5245 5.61161 16.1276C6.3035 15.2379 7.90291 13.6832 8.80146 13.0182C11.2365 11.2209 14.013 10.0976 17.0322 9.71116C17.9217 9.60332 20.3119 9.59433 21.2014 9.71116ZM21.1205 16.496C21.8753 16.6398 22.7559 16.9184 23.5826 17.2869C24.1397 17.5385 25.8739 18.6528 25.8739 18.7607C25.8739 18.7966 25.1371 19.5605 24.2295 20.4681L22.5942 22.1037L21.8843 21.7532C21.0037 21.3039 20.1861 21.1152 19.1527 21.1152C16.4751 21.1152 14.2826 22.7867 13.5997 25.3389C13.402 26.1027 13.393 27.5226 13.5907 28.3044C14.1119 30.3174 15.6843 31.8901 17.6971 32.4113C18.4788 32.609 19.8985 32.6 20.6623 32.4023C22.082 32.0159 23.3939 31.0364 24.1037 29.8322C24.6069 28.9694 24.8136 28.2325 24.8585 27.1272C24.9214 25.932 24.7507 25.1142 24.2565 24.1167L23.8971 23.4067L25.5594 21.7442L27.2217 20.0817L27.4373 20.3513C28.246 21.3578 29.0368 22.9664 29.3782 24.2964C30.6092 29.1132 28.1921 34.1547 23.6095 36.3474C19.584 38.2706 14.9745 37.4528 11.7577 34.2446C8.54986 31.0274 7.73219 26.4172 9.65508 22.3913C11.2365 19.0842 14.3904 16.8016 17.9756 16.3612C18.7843 16.2534 20.1861 16.3163 21.1205 16.496ZM20.0782 23.1282C20.3298 23.1911 20.6623 23.3169 20.833 23.3978L21.1295 23.5595L19.6379 25.0603C18.1823 26.5251 18.1464 26.57 18.1464 26.9475C18.1464 27.5046 18.4339 27.7652 19.0719 27.7652H19.5571L21.0037 26.3094L22.4414 24.8536L22.6301 25.231C22.7289 25.4287 22.8637 25.887 22.9266 26.2285C23.2142 27.8821 22.3426 29.5356 20.7791 30.2995C20.195 30.578 20.1142 30.596 19.1707 30.596C18.2093 30.596 18.1643 30.587 17.5084 30.2635C16.6727 29.8501 16.0887 29.257 15.6933 28.4123C15.4238 27.8461 15.4058 27.7473 15.4058 26.8216C15.4058 25.887 15.4238 25.7972 15.7023 25.222C16.52 23.5595 18.371 22.6698 20.0782 23.1282Z" fill="#6F3BE3"/>
</svg>
